<?xml version="1.0" encoding="UTF-8"?>
<svg xmlns="http://www.w3.org/2000/svg" xmlns:xlink="http://www.w3.org/1999/xlink" width="375pt" height="374.999991pt" viewBox="0 0 375 374.999991" version="1.2">
<defs>
<clipPath id="clip1">
  <path d="M 40.921875 99.003906 L 333.34375 99.003906 L 333.34375 275.160156 L 40.921875 275.160156 Z M 40.921875 99.003906 "/>
</clipPath>
<clipPath id="clip2">
  <path d="M 151.859375 154.351562 L 252.269531 154.351562 L 252.269531 254.761719 L 151.859375 254.761719 Z M 151.859375 154.351562 "/>
</clipPath>
</defs>
<g id="surface1">
<g clip-path="url(#clip1)" clip-rule="nonzero">
<path style=" stroke:none;fill-rule:nonzero;fill:rgb(21.179199%,67.059326%,61.178589%);fill-opacity:1;" d="M 73.402344 215.683594 C 58.355469 215.683594 46.183594 227.828125 46.183594 242.761719 C 46.183594 257.691406 58.359375 269.84375 73.324219 269.84375 L 272.082031 269.84375 C 302.945312 269.84375 328.058594 244.785156 328.058594 213.988281 C 328.058594 183.394531 303.109375 158.339844 272.445312 158.148438 L 270.40625 158.128906 L 269.914062 156.160156 C 262.261719 125.625 234.859375 104.300781 203.277344 104.300781 C 167.832031 104.300781 138.445312 130.800781 134.929688 165.941406 L 134.671875 168.546875 L 132.054688 168.289062 C 130.355469 168.121094 128.644531 168.035156 126.964844 168.035156 C 100.886719 168.035156 79.089844 187.519531 76.265625 213.351562 L 76.003906 215.710938 L 73.40625 215.683594 C 73.40625 215.683594 73.402344 215.683594 73.402344 215.683594 Z M 272.082031 275.085938 L 73.324219 275.085938 C 55.460938 275.085938 40.929688 260.582031 40.929688 242.761719 C 40.929688 225.605469 54.394531 211.523438 71.339844 210.496094 C 75.457031 183.144531 98.972656 162.792969 126.964844 162.792969 C 127.972656 162.792969 128.984375 162.820312 130 162.875 C 134.921875 126.316406 165.980469 99.058594 203.277344 99.058594 C 236.601562 99.058594 265.605469 121.117188 274.5 152.949219 C 307.113281 154.222656 333.3125 181.195312 333.3125 213.988281 C 333.3125 247.675781 305.84375 275.085938 272.082031 275.085938 "/>
</g>
<g clip-path="url(#clip2)" clip-rule="nonzero">
<path style=" stroke:none;fill-rule:nonzero;fill:rgb(21.179199%,67.059326%,61.178589%);fill-opacity:1;" d="M 163.820312 154.484375 L 151.777344 178.636719 L 163.957031 178.636719 L 153.726562 200.910156 L 177.019531 171.605469 L 163.859375 171.605469 L 174.242188 154.484375 Z M 220.507812 156.792969 C 209.828125 156.792969 200.382812 162.109375 194.617188 170.21875 L 194.503906 170.132812 L 163.257812 213.777344 L 163.238281 213.8125 C 159.8125 219.003906 156.988281 223.632812 156.988281 230.085938 C 156.988281 243.550781 167.953125 254.515625 181.417969 254.515625 C 184.96875 254.515625 187.910156 253.789062 190.648438 252.433594 C 193.386719 251.078125 195.933594 249.171875 199.21875 246.757812 L 199.265625 246.726562 L 239.097656 214.242188 C 247.066406 208.46875 252.269531 199.117188 252.269531 188.550781 C 252.269531 171.039062 238.019531 156.792969 220.507812 156.792969 Z M 220.507812 161.679688 C 235.375 161.679688 247.382812 173.683594 247.382812 188.550781 C 247.382812 196.417969 244.003906 203.46875 238.640625 208.375 L 238.613281 208.335938 L 235.511719 210.875 C 231.226562 213.746094 226.070312 215.425781 220.507812 215.425781 C 205.640625 215.425781 193.632812 203.421875 193.632812 188.550781 C 193.632812 173.683594 205.640625 161.679688 220.507812 161.679688 Z M 220.507812 171.449219 C 211.089844 171.449219 203.40625 179.132812 203.40625 188.550781 C 203.40625 197.972656 211.089844 205.652344 220.507812 205.652344 C 229.925781 205.652344 237.609375 197.972656 237.609375 188.550781 C 237.609375 179.132812 229.925781 171.449219 220.507812 171.449219 Z M 220.507812 176.335938 C 227.285156 176.335938 232.722656 181.777344 232.722656 188.550781 C 232.722656 195.328125 227.285156 200.769531 220.507812 200.769531 C 213.734375 200.769531 208.292969 195.328125 208.292969 188.550781 C 208.292969 181.777344 213.734375 176.335938 220.507812 176.335938 Z M 188.851562 186.414062 C 188.804688 187.121094 188.75 187.828125 188.75 188.550781 C 188.75 206.066406 202.996094 220.3125 220.507812 220.3125 C 221.757812 220.3125 223 220.21875 224.210938 220.082031 L 196.308594 242.824219 C 193.023438 245.238281 190.636719 246.984375 188.480469 248.054688 C 186.304688 249.132812 184.359375 249.628906 181.417969 249.628906 C 170.597656 249.628906 161.875 240.90625 161.875 230.085938 C 161.875 225.015625 163.9375 221.628906 167.304688 216.515625 C 167.3125 216.503906 167.3125 216.503906 167.324219 216.496094 Z M 181.417969 215.425781 C 173.355469 215.425781 166.761719 222.019531 166.761719 230.085938 C 166.761719 238.148438 173.355469 244.742188 181.417969 244.742188 C 189.484375 244.742188 196.078125 238.148438 196.078125 230.085938 C 196.078125 222.019531 189.484375 215.425781 181.417969 215.425781 Z M 181.417969 220.3125 C 186.847656 220.3125 191.191406 224.65625 191.191406 230.085938 C 191.191406 235.515625 186.847656 239.855469 181.417969 239.855469 C 175.988281 239.855469 171.648438 235.515625 171.648438 230.085938 C 171.648438 224.65625 175.988281 220.3125 181.417969 220.3125 Z M 181.417969 220.3125 "/>
</g>
</g>
</svg>
